<svg width="10" height="10" viewBox="0 0 10 10" fill="none" xmlns="http://www.w3.org/2000/svg">
<path d="M5.88124 4.99947L9.81631 1.07065C9.93392 0.953029 10 0.793505 10 0.62717C10 0.460834 9.93392 0.301311 9.81631 0.183694C9.69869 0.0660767 9.53917 0 9.37283 0C9.2065 0 9.04697 0.0660767 8.92936 0.183694L5.00053 4.11876L1.07171 0.183694C0.954094 0.0660767 0.794571 1.4768e-07 0.628236 1.4892e-07C0.4619 1.50159e-07 0.302377 0.0660767 0.18476 0.183694C0.0671426 0.301311 0.00106612 0.460834 0.00106612 0.62717C0.00106611 0.793505 0.0671426 0.953029 0.18476 1.07065L4.11983 4.99947L0.18476 8.92829C0.126216 8.98635 0.0797481 9.05544 0.0480373 9.13155C0.0163265 9.20767 0 9.28931 0 9.37176C0 9.45422 0.0163265 9.53586 0.0480373 9.61198C0.0797481 9.68809 0.126216 9.75717 0.18476 9.81524C0.242826 9.87378 0.311909 9.92025 0.388024 9.95196C0.464139 9.98367 0.545779 10 0.628236 10C0.710692 10 0.792333 9.98367 0.868448 9.95196C0.944563 9.92025 1.01365 9.87378 1.07171 9.81524L5.00053 5.88017L8.92936 9.81524C8.98742 9.87378 9.0565 9.92025 9.13262 9.95196C9.20873 9.98367 9.29037 10 9.37283 10C9.45529 10 9.53693 9.98367 9.61304 9.95196C9.68916 9.92025 9.75824 9.87378 9.81631 9.81524C9.87485 9.75717 9.92132 9.68809 9.95303 9.61198C9.98474 9.53586 10.0011 9.45422 10.0011 9.37176C10.0011 9.28931 9.98474 9.20767 9.95303 9.13155C9.92132 9.05544 9.87485 8.98635 9.81631 8.92829L5.88124 4.99947Z" fill="#999999"/>
</svg>
